<svg width="108" height="108" viewBox="0 0 108 108" fill="none" xmlns="http://www.w3.org/2000/svg">
<g filter="url(#filter0_d_497_606)">
<rect x="12" y="4" width="84" height="84" rx="16" fill="white" shape-rendering="crispEdges"/>
<path d="M39.6047 25.9326L38.8239 27.3603L37.3962 28.1411L38.8239 28.9219L39.6047 30.3496L40.3855 28.9219L41.8132 28.1411L40.3855 27.3603L39.6047 25.9326Z" fill="#0023D9"/>
<path d="M68.4053 25.9326L67.6245 27.3603L66.1968 28.1411L67.6245 28.9219L68.4053 30.3496L69.1861 28.9219L70.6138 28.1411L69.1861 27.3603L68.4053 25.9326Z" fill="#0023D9"/>
<path d="M27.1496 50.3218C26.8447 50.3218 26.5523 50.4429 26.3367 50.6585C26.1211 50.8741 26 51.1665 26 51.4714C26 51.7763 26.1211 52.0687 26.3367 52.2843C26.5523 52.4999 26.8447 52.621 27.1496 52.621C27.4545 52.621 27.7469 52.4999 27.9625 52.2843C28.1781 52.0687 28.2992 51.7763 28.2992 51.4714C28.2992 51.1665 28.1781 50.8741 27.9625 50.6585C27.7469 50.4429 27.4545 50.3218 27.1496 50.3218Z" fill="#0023D9"/>
<path d="M80.8503 50.3218C80.5454 50.3218 80.253 50.4429 80.0374 50.6585C79.8218 50.8741 79.7007 51.1665 79.7007 51.4714C79.7007 51.7763 79.8218 52.0687 80.0374 52.2843C80.253 52.4998 80.5454 52.621 80.8503 52.621C81.1552 52.621 81.4476 52.4999 81.6632 52.2843C81.8788 52.0687 81.9999 51.7763 81.9999 51.4714C81.9999 51.1665 81.8788 50.8741 81.6632 50.6585C81.4476 50.4429 81.1552 50.3218 80.8503 50.3218Z" fill="#0023D9"/>
<path d="M78.1044 46.5273C78.5545 46.5273 78.9862 46.7088 79.3045 47.0319C79.6227 47.3549 79.8016 47.7931 79.8016 48.25C79.8016 48.4763 79.7577 48.7003 79.6724 48.9093C79.5871 49.1184 79.4621 49.3083 79.3045 49.4683C79.1469 49.6282 78.9598 49.7551 78.7539 49.8417C78.548 49.9283 78.3273 49.9729 78.1044 49.9729C77.7221 49.9728 77.351 49.8418 77.0512 49.6009C76.8505 49.4396 76.6883 49.2343 76.5768 49.0004C76.4654 48.7664 76.4075 48.5099 76.4075 48.25C76.4075 47.9848 76.4678 47.7231 76.5838 47.4854C76.6997 47.2478 76.8682 47.0405 77.076 46.8797C77.3716 46.6511 77.7329 46.5273 78.1044 46.5273Z" fill="#0023D9"/>
<path d="M29.895 46.8765C29.4449 46.8765 29.0133 47.058 28.695 47.3811C28.3768 47.7041 28.198 48.1423 28.198 48.5991C28.198 49.056 28.3768 49.4942 28.695 49.8173C29.0132 50.1404 29.4449 50.3219 29.895 50.322C30.1701 50.322 30.441 50.2541 30.6845 50.1242C30.928 49.9943 31.1368 49.8063 31.2928 49.5763C31.4878 49.2889 31.5921 48.9481 31.5921 48.5991C31.5921 48.1875 31.4468 47.7894 31.1827 47.477C31.0233 47.2887 30.8258 47.1374 30.6035 47.0338C30.3813 46.9301 30.1396 46.8765 29.895 46.8765Z" fill="#0023D9"/>
<path d="M54.005 24.271C52.2736 24.271 50.5973 24.9049 49.2692 26.062C47.9412 27.219 47.046 28.8255 46.7402 30.6004C46.1307 30.4344 45.5032 30.3504 44.8731 30.3504C43.1969 30.3504 41.5706 30.9446 40.2618 32.0353C41.4969 32.5194 42.5599 33.3603 43.3152 34.4509C44.0705 35.5415 44.4839 36.8322 44.5028 38.1587C44.1098 36.9158 43.4187 35.7979 42.4949 34.911C41.5711 34.0241 40.4452 33.3975 39.2238 33.0905C38.6568 32.948 38.0756 32.876 37.4923 32.876C36.3279 32.876 35.1799 33.163 34.1423 33.7134C33.1047 34.2639 32.2068 35.0623 31.5221 36.0433C30.6054 37.3569 30.1116 38.939 30.1116 40.5629C30.1116 42.3225 30.6912 44.0288 31.7536 45.3969C32.1808 45.9471 32.679 46.4332 33.2339 46.8414C32.7083 47.9197 32.4343 49.112 32.4343 50.3213C32.4343 50.4505 32.4374 50.5796 32.4437 50.7087C32.4733 51.3196 32.5727 51.9247 32.74 52.5111C32.346 52.0485 32.0169 51.5342 31.762 50.9826C30.4567 51.5861 29.3475 52.5712 28.569 53.8182C27.7906 55.0653 27.3762 56.5208 27.3762 58.0082C27.3762 60.0469 28.1538 62.0021 29.5379 63.4437C30.9221 64.8852 32.7993 65.6951 34.7568 65.6952C36.0979 65.6952 37.4136 65.3146 38.5626 64.5944V42.1223C38.5626 40.7498 39.6674 39.6448 41.0399 39.6448H52.0906C52.1077 39.5618 52.1234 39.4784 52.1378 39.3948C52.7473 39.5608 53.3747 39.6448 54.0047 39.6448H54.0059C54.3197 39.6448 54.6332 39.6239 54.9445 39.5824C54.9486 39.6032 54.9528 39.624 54.957 39.6448H66.9601C68.3326 39.6448 69.4375 40.7498 69.4375 42.1223V64.5554C70.6006 65.3006 71.9394 65.6952 73.3049 65.6952C75.2624 65.6951 77.1396 64.8852 78.5237 63.4437C79.9079 62.0021 80.6855 60.0469 80.6855 58.0082C80.6855 56.5666 80.2962 55.154 79.5621 53.9317C78.828 52.7095 77.7787 51.7269 76.534 51.0961C76.0727 52.0468 75.3925 52.8745 74.5491 53.5112C74.9526 52.5897 75.1774 51.5942 75.2103 50.5819C75.2131 50.4951 75.2145 50.4082 75.2145 50.3213C75.2145 49.1837 74.9721 48.0602 74.5047 47.032C75.2637 46.5246 75.9269 45.8766 76.4616 45.1201C77.3949 43.7995 77.8984 42.2027 77.8984 40.5629C77.8984 39.3559 77.6255 38.1658 77.1017 37.089C76.4853 35.8217 75.5437 34.7571 74.3815 34.0134C73.2192 33.2698 71.8819 32.876 70.5178 32.876C69.6633 32.876 68.8152 33.0305 68.0115 33.3327C66.2594 33.9915 64.8113 35.3159 63.9576 37.0403C64.1349 36.0809 64.5202 35.172 65.0864 34.3776C65.6526 33.5831 66.386 32.9223 67.235 32.4416C65.8657 31.0984 64.0556 30.3504 62.1746 30.3504C61.8605 30.3504 61.5467 30.3713 61.2352 30.4129C60.8935 28.6786 59.9875 27.1202 58.6702 26.0012C57.3529 24.8821 55.7049 24.271 54.005 24.271Z" fill="#0023D9"/>
<path d="M65.8246 41.8193C65.6822 41.8193 65.5413 41.8487 65.4098 41.9058C65.2783 41.9629 65.1588 42.0465 65.0581 42.1519C64.9575 42.2574 64.8777 42.3826 64.8232 42.5203C64.7687 42.6581 64.7407 42.8058 64.7407 42.9549C64.7407 43.104 64.7687 43.2517 64.8232 43.3894C64.8777 43.5272 64.9575 43.6524 65.0581 43.7578C65.1588 43.8633 65.2783 43.9469 65.4098 44.004C65.5413 44.0611 65.6822 44.0904 65.8246 44.0904C65.9669 44.0905 66.1079 44.0611 66.2394 44.004C66.3709 43.947 66.4904 43.8633 66.5911 43.7579C66.6917 43.6524 66.7716 43.5273 66.8261 43.3895C66.8805 43.2517 66.9086 43.104 66.9086 42.9549C66.9086 42.8058 66.8805 42.6581 66.8261 42.5203C66.7716 42.3825 66.6917 42.2573 66.5911 42.1519C66.4904 42.0464 66.3709 41.9628 66.2394 41.9057C66.1079 41.8487 65.9669 41.8193 65.8246 41.8193Z" fill="#0023D9"/>
<path d="M62.7789 41.8193C62.6366 41.8193 62.4956 41.8487 62.3641 41.9058C62.2326 41.9629 62.1131 42.0465 62.0125 42.1519C61.9119 42.2574 61.832 42.3826 61.7776 42.5203C61.7231 42.6581 61.6951 42.8058 61.6951 42.9549C61.6951 43.104 61.7231 43.2517 61.7776 43.3894C61.832 43.5272 61.9119 43.6524 62.0125 43.7578C62.1131 43.8633 62.2326 43.9469 62.3641 44.004C62.4956 44.0611 62.6366 44.0904 62.7789 44.0904C62.9213 44.0904 63.0622 44.0611 63.1937 44.004C63.3252 43.9469 63.4447 43.8633 63.5453 43.7578C63.646 43.6524 63.7258 43.5272 63.7803 43.3894C63.8348 43.2517 63.8628 43.104 63.8628 42.9549C63.8628 42.8058 63.8347 42.6581 63.7803 42.5203C63.7258 42.3826 63.646 42.2574 63.5453 42.1519C63.4447 42.0465 63.3252 41.9629 63.1937 41.9058C63.0622 41.8487 62.9213 41.8193 62.7789 41.8193Z" fill="#0023D9"/>
<path d="M41.9276 41.8193C41.2986 41.8193 40.7922 42.3258 40.7922 42.9549C40.7922 43.584 41.2986 44.0904 41.9276 44.0904H46.3664C46.9955 44.0904 47.502 43.584 47.502 42.9549C47.502 42.3258 46.9955 41.8193 46.3664 41.8193H41.9276Z" fill="#0023D9"/>
<path d="M53.8757 45.2778C51.2931 45.2778 48.7894 46.1684 46.7868 47.7992C45.4943 48.8519 44.4523 50.1793 43.7368 51.6849C43.0212 53.1905 42.6499 54.8366 42.6499 56.5037C42.6499 56.8038 42.6619 57.1038 42.6859 57.403C42.9119 60.2155 44.1888 62.8398 46.2624 64.7534C48.3359 66.6671 51.0541 67.7296 53.8757 67.7296C56.6899 67.7297 59.4015 66.6727 61.4733 64.7681C63.545 62.8635 64.8259 60.2503 65.0621 57.446C65.0885 57.1326 65.1017 56.8182 65.1017 56.5037C65.1017 54.819 64.7225 53.156 63.9924 51.6379C63.2622 50.1198 62.1997 48.7854 60.8836 47.7338C58.8939 46.1439 56.4227 45.2778 53.8757 45.2778ZM53.8626 46.0367C56.3532 46.0367 58.7615 46.9286 60.6512 48.551C61.7908 49.5294 62.7054 50.7425 63.3325 52.1073C63.9595 53.4721 64.2841 54.9563 64.2841 56.4582C64.2841 56.6561 64.2785 56.8539 64.2672 57.0515C64.1158 59.7085 62.9536 62.2068 61.0189 64.0343C59.0843 65.8618 56.5239 66.8799 53.8626 66.8799C51.1938 66.88 48.6267 65.8562 46.6904 64.0195C44.7541 62.1829 43.5962 59.6734 43.4553 57.0083C43.4457 56.8251 43.4408 56.6417 43.4408 56.4582C43.4408 54.9706 43.7593 53.5002 44.3749 52.146C44.9904 50.7917 45.8887 49.5849 47.0095 48.6066C48.908 46.9496 51.3426 46.0366 53.8626 46.0367Z" fill="#0023D9"/>
<path d="M53.9019 46.9805C52.6492 46.9805 51.4091 47.2311 50.2547 47.7174C49.1003 48.2038 48.0548 48.9162 47.1797 49.8127C45.4963 51.5374 44.5401 53.8432 44.5091 56.2532C44.5085 56.2935 44.5083 56.3339 44.5083 56.3742C44.5083 58.8656 45.498 61.2549 47.2596 63.0165C49.0213 64.7781 51.4106 65.7678 53.9019 65.7678C56.3917 65.7678 58.7797 64.7794 60.5411 63.0196C62.3025 61.2599 63.2932 58.8729 63.2955 56.383C63.2955 56.3801 63.2955 56.3772 63.2955 56.3742C63.2955 55.1254 63.0465 53.889 62.5631 52.7376C62.0796 51.5861 61.3714 50.5426 60.4799 49.668C58.7237 47.9454 56.3619 46.9805 53.9019 46.9805ZM54.031 48.4257C55.3183 48.4256 56.5867 48.7343 57.7292 49.3255C58.8717 49.9168 59.8547 50.7733 60.5954 51.8227C61.2476 52.747 61.696 53.7984 61.911 54.9078C62.008 55.408 62.0568 55.9163 62.0569 56.4258C62.0569 57.4764 61.8493 58.5167 61.4459 59.4873C61.0426 60.4579 60.4514 61.3398 59.7062 62.0827C58.9609 62.8256 58.0761 63.4149 57.1024 63.8169C56.1287 64.219 55.085 64.4259 54.031 64.4259C52.977 64.4259 51.9334 64.219 50.9596 63.817C49.9858 63.4149 49.1011 62.8256 48.3558 62.0828C47.6105 61.3399 47.0193 60.4579 46.616 59.4873C46.2126 58.5167 46.005 57.4764 46.005 56.4258C46.005 55.3752 46.2126 54.3349 46.616 53.3642C47.0193 52.3936 47.6105 51.5117 48.3558 50.7688C49.1011 50.0259 49.9858 49.4366 50.9596 49.0346C51.9334 48.6326 52.977 48.4256 54.031 48.4257Z" fill="#0023D9"/>
<path d="M59.1977 54.6938C59.0077 54.6939 58.8255 54.7646 58.6911 54.8905C58.5567 55.0164 58.4812 55.1871 58.4812 55.3651C58.4812 55.5432 58.5567 55.7139 58.6911 55.8398C58.8254 55.9657 59.0077 56.0365 59.1977 56.0365C59.2919 56.0365 59.3851 56.0192 59.472 55.9854C59.559 55.9517 59.638 55.9022 59.7045 55.8399C59.7711 55.7775 59.8239 55.7035 59.8599 55.6221C59.8959 55.5406 59.9144 55.4533 59.9144 55.3651C59.9144 55.1871 59.8389 55.0163 59.7045 54.8904C59.5701 54.7645 59.3878 54.6938 59.1977 54.6938Z" fill="#0023D9"/>
<path d="M51.3794 52.5796C51.1022 52.5796 50.8363 52.6909 50.6403 52.889C50.4443 53.0871 50.3342 53.3558 50.3342 53.6359C50.3342 53.7747 50.3612 53.9121 50.4137 54.0402C50.4663 54.1684 50.5432 54.2849 50.6403 54.383C50.7373 54.4811 50.8526 54.5589 50.9794 54.612C51.1062 54.6651 51.2421 54.6924 51.3794 54.6924C51.5166 54.6924 51.6526 54.6651 51.7794 54.612C51.9062 54.5589 52.0214 54.4811 52.1185 54.383C52.2155 54.2849 52.2925 54.1684 52.345 54.0402C52.3975 53.9121 52.4245 53.7747 52.4245 53.6359C52.4245 53.3558 52.3144 53.0871 52.1184 52.889C51.9224 52.6909 51.6566 52.5796 51.3794 52.5796Z" fill="#0023D9"/>
<path d="M49.4917 55.0529C48.8136 55.0452 48.1901 55.3945 47.811 56.4268C47.8111 59.8188 50.5609 62.5686 53.9529 62.5687C57.3451 62.5687 60.095 59.8189 60.095 56.4268C56.2101 60.8655 52.7401 56.8139 52.7401 56.8139C52.7401 56.8139 50.9837 55.0696 49.4917 55.0529Z" fill="#0023D9"/>
</g>
<defs>
<filter id="filter0_d_497_606" x="0" y="0" width="108" height="108" filterUnits="userSpaceOnUse" color-interpolation-filters="sRGB">
<feFlood flood-opacity="0" result="BackgroundImageFix"/>
<feColorMatrix in="SourceAlpha" type="matrix" values="0 0 0 0 0 0 0 0 0 0 0 0 0 0 0 0 0 0 127 0" result="hardAlpha"/>
<feOffset dy="8"/>
<feGaussianBlur stdDeviation="6"/>
<feComposite in2="hardAlpha" operator="out"/>
<feColorMatrix type="matrix" values="0 0 0 0 0 0 0 0 0 0 0 0 0 0 0 0 0 0 0.1 0"/>
<feBlend mode="normal" in2="BackgroundImageFix" result="effect1_dropShadow_497_606"/>
<feBlend mode="normal" in="SourceGraphic" in2="effect1_dropShadow_497_606" result="shape"/>
</filter>
</defs>
</svg>
